<?xml version="1.0" encoding="UTF-8"?>
<svg version="1.1" xmlns="http://www.w3.org/2000/svg" width="512" height="512">
<path d="M0 0 C9.87440583 8.03598478 12.3900553 18.88572709 14.72265625 30.96875 C14.93470703 32.02642578 15.14675781 33.08410156 15.36523438 34.17382812 C15.93041128 36.99971266 16.48391875 39.82762168 17.03515625 42.65625 C17.36755153 44.323104 17.70059337 45.98982971 18.03515625 47.65625 C19.07414062 47.69363281 20.113125 47.73101562 21.18359375 47.76953125 C35.13917831 48.37782582 45.35396319 50.37918536 55.28515625 60.90625 C62.18529729 69.46092077 63.6464127 79.84918685 62.590271 90.52302551 C62.332398 92.71041985 62.06303726 94.89648055 61.78417969 97.08129883 C61.63974426 98.28463364 61.49530884 99.48796844 61.34649658 100.72776794 C61.03368095 103.32987606 60.71724232 105.93126674 60.39531708 108.5322361 C59.88400485 112.6766467 59.3960488 116.82361084 58.91265869 120.97135925 C58.74567741 122.40166156 58.57866591 123.83196034 58.41162491 125.26225567 C58.28617192 126.33648991 58.28617192 126.33648991 58.15818453 127.43242586 C57.03079429 137.06842254 55.88415467 146.70182783 54.69433594 156.33032227 C53.88893973 162.84946732 53.11437856 169.37155712 52.37184548 175.89816874 C51.97991242 179.3321698 51.57419422 182.76301105 51.12981415 186.19065285 C48.79363865 204.47491824 49.38524305 220.30544798 53.31424332 238.32354164 C54.19425436 242.39174466 54.96379477 246.4756816 55.72712803 250.56706238 C56.42778277 254.30453559 57.1630965 258.03486446 57.89733315 261.7658596 C58.90009902 266.87369731 59.8846964 271.98506036 60.87304688 277.09570312 C62.11280263 283.49992553 63.3577019 289.90303623 64.61938477 296.30297852 C65.65775549 301.57268155 66.67943284 306.84539339 67.69057274 312.12038612 C68.0724748 314.09673418 68.46022422 316.07196333 68.85445595 318.0458889 C70.75049412 327.55225323 72.36365405 336.85860933 72.44213867 346.57543945 C72.45547603 347.6536422 72.45547603 347.6536422 72.46908283 348.75362682 C72.32224027 357.86983472 67.81041595 364.9258512 62.03515625 371.65625 C55.89841119 377.3260688 48.82689714 379.0637451 40.90234375 380.796875 C37.21845657 381.61551659 33.6510314 382.58557528 30.03515625 383.65625 C29.96522461 384.41131836 29.89529297 385.16638672 29.82324219 385.94433594 C29.49173159 389.43319182 29.13856296 392.9195467 28.78515625 396.40625 C28.67558594 397.59347656 28.56601562 398.78070313 28.453125 400.00390625 C27.06064686 413.41566938 24.25466139 423.46544092 14.03515625 432.65625 C1.05568687 442.8338782 -15.01199923 439.89509209 -30.39282227 438.09570312 C-31.88108683 437.92752835 -33.36943184 437.76006419 -34.85784912 437.59324646 C-38.03332058 437.23591658 -41.20819897 436.87383554 -44.38269234 436.50791931 C-49.4145713 435.92810662 -54.44776038 435.36027408 -59.48118591 434.79406738 C-70.16428714 433.59064522 -80.84585568 432.37389311 -91.52734375 431.15625 C-103.06719332 429.84106751 -114.6073295 428.52861146 -126.14903587 427.22981024 C-131.14051531 426.66767948 -136.13112836 426.09854406 -141.12116826 425.52378082 C-144.23731389 425.16632281 -147.35412292 424.81492981 -150.47113037 424.46507454 C-151.90276188 424.30315145 -153.33411991 424.1387862 -154.76515007 423.971632 C-169.44255036 422.25984721 -182.48776877 422.57446038 -196.96948242 425.41015625 C-198.53131101 425.70676556 -200.09334461 426.00229702 -201.65556335 426.29684448 C-204.99339773 426.92844431 -208.32971728 427.56734322 -211.66502953 428.21212769 C-216.94661209 429.23293948 -222.23148416 430.23594306 -227.516922 431.23657227 C-237.77927694 433.18186736 -248.03827239 435.14451989 -258.29688263 437.10945129 C-271.365059 439.61190593 -284.43448208 442.10768847 -297.50740033 444.58526134 C-302.75402072 445.58022156 -307.99876962 446.58437554 -313.24222028 447.59590149 C-316.5095223 448.22436965 -319.7782332 448.84525489 -323.04734993 449.4642067 C-324.55474713 449.75122775 -326.06155359 450.04137299 -327.56768036 450.33498764 C-341.30179366 453.00947867 -353.34905759 454.65299041 -365.71484375 446.90625 C-373.05118396 441.62719038 -377.65994311 435.48579245 -379.96484375 426.65625 C-380.38935845 423.32950587 -380.6990576 419.99913156 -380.96484375 416.65625 C-381.88185059 416.67719727 -382.79885742 416.69814453 -383.74365234 416.71972656 C-387.1916741 416.78846946 -390.6389531 416.83832152 -394.08740234 416.87597656 C-395.57124423 416.89591981 -397.0550093 416.9230849 -398.53857422 416.95800781 C-410.37349778 417.22934119 -420.89221328 416.03953845 -429.96484375 407.65625 C-437.36374593 399.54188794 -440.08259244 390.70238577 -440.09627151 379.79775047 C-440.10011266 378.64368403 -440.1039538 377.48961758 -440.10791135 376.30057943 C-440.10704487 375.04222898 -440.10617838 373.78387852 -440.10528564 372.48739624 C-440.10787121 371.12958525 -440.1108849 369.77177501 -440.11428905 368.41396582 C-440.12233988 364.68816608 -440.12414755 360.96238563 -440.12488651 357.23657823 C-440.12674042 353.21596147 -440.13428947 349.19535465 -440.14102173 345.17474365 C-440.15459214 336.38531871 -440.16062781 327.59589834 -440.16503239 318.80646467 C-440.1677971 313.31570432 -440.17203488 307.82494572 -440.17653656 302.33418655 C-440.18872773 287.12453764 -440.19902722 271.91489013 -440.20241165 256.70523643 C-440.20263122 255.73215419 -440.20285078 254.75907195 -440.203077 253.75650237 C-440.20329528 252.78112364 -440.20351356 251.80574492 -440.20373845 250.80080926 C-440.20418191 248.82440019 -440.20462848 246.84799111 -440.20507812 244.87158203 C-440.20529955 243.89121989 -440.20552098 242.91085775 -440.20574912 241.90078767 C-440.20969582 226.02099918 -440.22714661 210.14125661 -440.25043765 194.26148586 C-440.27417063 177.94837712 -440.2866144 161.63529141 -440.28777957 145.32216513 C-440.28869525 136.16684252 -440.2944207 127.01157975 -440.31259918 117.85627365 C-440.32802648 110.05921253 -440.33310515 102.26222973 -440.32486108 94.46515624 C-440.32096382 90.48999581 -440.32183874 86.51499301 -440.33591843 82.53985214 C-440.34871307 78.89403871 -440.34741153 75.24850043 -440.33532771 71.60268708 C-440.3324644 69.67324063 -440.34426422 67.74378918 -440.35674977 65.814381 C-440.2810232 52.37273479 -437.76385832 41.60953079 -428.1875 31.84375 C-420.76174282 25.56403991 -411.59074711 23.55407941 -402.08496094 23.53930664 C-394.63361074 23.66615154 -394.63361074 23.66615154 -388.09765625 20.5546875 C-385.81597343 17.94474243 -385.81597343 17.94474243 -383.83984375 15.171875 C-379.74741409 9.68119854 -373.60692804 6.83468431 -366.96484375 5.65625 C-357.05893312 5.23930134 -347.36408196 6.06711943 -337.53686523 7.21679688 C-336.04860067 7.38497165 -334.56025566 7.55243581 -333.07183838 7.71925354 C-329.89636692 8.07658342 -326.72148853 8.43866446 -323.54699516 8.80458069 C-318.5151162 9.38439338 -313.48192712 9.95222592 -308.44850159 10.51843262 C-297.76540036 11.72185478 -287.08383182 12.93860689 -276.40234375 14.15625 C-264.86249418 15.47143249 -253.322358 16.78388854 -241.78065163 18.08268976 C-236.78917219 18.64482052 -231.79855914 19.21395594 -226.80851924 19.78871918 C-223.69237361 20.14617719 -220.57556458 20.49757019 -217.45855713 20.84742546 C-216.02692562 21.00934855 -214.59556759 21.1737138 -213.16453743 21.340868 C-198.48713714 23.05265279 -185.44191873 22.73803962 -170.96020508 19.90234375 C-169.39837649 19.60573444 -167.83634289 19.31020298 -166.27412415 19.01565552 C-162.93628977 18.38405569 -159.59997022 17.74515678 -156.26465797 17.10037231 C-150.98307541 16.07956052 -145.69820334 15.07655694 -140.4127655 14.07592773 C-130.15041056 12.13063264 -119.89141511 10.16798011 -109.63280487 8.20304871 C-96.5646285 5.70059407 -83.49520542 3.20481153 -70.42228717 0.72723866 C-65.17566678 -0.26772156 -59.93091788 -1.27187554 -54.68746722 -2.28340149 C-51.4201652 -2.91186965 -48.1514543 -3.53275489 -44.88233757 -4.1517067 C-43.37494037 -4.43872775 -41.86813391 -4.72887299 -40.36200714 -5.02248764 C-25.47922757 -7.9206624 -12.88589235 -9.27238815 0 0 Z " fill="#F3EAFA" transform="translate(439.96484375,33.34375)"/>
<path d="M0 0 C1.40567406 -0.0054931 2.81133986 -0.01360744 4.21698558 -0.02408731 C8.047431 -0.04510597 11.87693243 -0.02910696 15.70733571 -0.00658631 C19.85054344 0.01119348 23.99363395 -0.0058166 28.13684082 -0.01831055 C36.24004731 -0.03723436 44.34289622 -0.02413364 52.44607605 0.00021534 C61.88987092 0.02753018 71.33358174 0.02417311 80.77740608 0.01994868 C97.63039429 0.0135767 114.48321313 0.03686059 131.33615112 0.07608032 C147.67669836 0.11409744 164.0170472 0.1282513 180.3576355 0.11709595 C198.16928062 0.10497223 215.98083863 0.10534845 233.79247653 0.12806761 C235.69269426 0.1304821 237.592912 0.13289407 239.49312973 0.1353035 C240.89540551 0.13711411 240.89540551 0.13711411 242.32601009 0.13896131 C248.90381378 0.1467094 255.48158497 0.14593639 262.05939102 0.14213181 C270.07746671 0.13788161 278.09536894 0.14838375 286.11339583 0.17735891 C290.20178302 0.19181604 294.28991799 0.20002754 298.37832642 0.19087219 C302.12505985 0.1826862 305.87127376 0.19314248 309.61792861 0.21812434 C311.60620445 0.22670216 313.59453528 0.21583563 315.58279526 0.20414579 C324.16087354 0.28774591 331.19924223 1.56178234 338.30245972 6.57266235 C338.89285034 7.18754517 339.48324097 7.80242798 340.09152222 8.4359436 C340.69738159 9.03793579 341.30324097 9.63992798 341.92745972 10.26016235 C346.53629879 16.6702726 348.31499362 22.8355637 348.19754028 30.65129089 C348.20095798 31.5001925 348.20437568 32.34909411 348.20789695 33.22372001 C348.21443885 36.04294286 348.19256153 38.86119457 348.17062378 41.68032837 C348.1694945 43.7111865 348.17013073 45.74204626 348.1723938 47.77290344 C348.17353873 53.26820717 348.15006497 58.76315976 348.12209797 64.25838208 C348.0970476 70.00789424 348.09473944 75.75741496 348.08999634 81.50697327 C348.07757727 92.3865361 348.04477002 103.26593765 348.00459838 114.14542955 C347.95984749 126.5347389 347.93788526 138.92405605 347.91781664 151.31342614 C347.87603654 176.79185462 347.80570517 202.27014006 347.71652222 227.7484436 C344.00449725 224.0495281 340.49055413 220.29369302 337.09152222 216.3109436 C336.57009644 215.70186157 336.04867065 215.09277954 335.51144409 214.46524048 C331.49704043 209.7421271 327.65809804 204.90012794 323.86251831 200.00064087 C320.5979957 195.80932087 317.19937517 191.75954418 313.71652222 187.7484436 C309.26275152 182.61916527 305.02027004 177.36826788 300.86105347 171.9984436 C297.59670976 167.80811128 294.19879757 163.75887897 290.71652222 159.7484436 C286.74830442 155.17836244 282.92281328 150.53342634 279.21652222 145.7484436 C274.96795888 140.26414429 270.54761315 134.96297362 265.990448 129.73257446 C263.05093818 126.34950077 260.28647739 122.89517976 257.59152222 119.3109436 C251.84286627 112.07454026 243.98010958 106.26528832 234.71652222 104.7484436 C222.86054639 103.75631174 212.80532064 104.79481265 202.90402222 111.9359436 C196.24359811 117.61782199 190.98026494 124.62686071 185.552948 131.45205688 C182.54652425 135.21148546 179.47236969 138.91453906 176.40402222 142.6234436 C172.66663864 147.15841464 168.93516747 151.69808656 165.21652222 156.2484436 C159.67949246 163.02388483 154.11163197 169.77392036 148.54708862 176.52676392 C145.60284634 180.1000641 142.65971123 183.67427588 139.71652222 187.2484436 C136.15851416 191.569239 132.6002117 195.88979053 129.04074097 200.2093811 C123.96938819 206.3641654 118.89817995 212.51907628 113.84152222 218.6859436 C112.80704956 219.94664673 112.80704956 219.94664673 111.75167847 221.2328186 C110.30487519 223.02118964 108.87708622 224.82501663 107.46261597 226.6390686 C106.38173706 228.02352173 106.38173706 228.02352173 105.27902222 229.4359436 C104.64093628 230.26481079 104.00285034 231.09367798 103.34542847 231.94766235 C102.8078894 232.54192017 102.27035034 233.13617798 101.71652222 233.7484436 C101.05652222 233.7484436 100.39652222 233.7484436 99.71652222 233.7484436 C97.99316452 231.72114275 96.37844947 229.68307942 94.77902222 227.5609436 C90.55623284 222.06711563 86.22183007 216.70891367 81.70968628 211.45059204 C78.72757101 207.96896713 75.86654841 204.41260635 73.02902222 200.8109436 C65.67659196 191.84202158 56.11916611 185.69180097 44.34152222 184.51016235 C31.8828806 184.15790909 21.94933033 188.46978587 12.71652222 196.7484436 C9.96970654 199.71031246 7.49828462 202.83314608 5.04611206 206.04092407 C2.34771201 209.50633171 -0.48181874 212.86646478 -3.28347778 216.2484436 C-4.50273813 217.72718963 -5.72149844 219.2063481 -6.93972778 220.6859436 C-7.51722778 221.3871936 -8.09472778 222.0884436 -8.68972778 222.8109436 C-10.72580506 225.2861748 -12.75556496 227.76652045 -14.78347778 230.2484436 C-16.28316959 232.08202905 -17.78321511 233.91532522 -19.28347778 235.7484436 C-20.12024048 236.7713147 -20.12024048 236.7713147 -20.97390747 237.81484985 C-22.8670401 240.12746656 -24.76256662 242.43810446 -26.65847778 244.7484436 C-27.26627075 245.49158813 -27.87406372 246.23473267 -28.50027466 247.00039673 C-29.07584106 247.7010022 -29.65140747 248.40160767 -30.24441528 249.1234436 C-30.75794556 249.74992798 -31.27147583 250.37641235 -31.80056763 251.0218811 C-33.22630195 252.68187339 -34.72860624 254.21039697 -36.28347778 255.7484436 C-36.37479928 226.36326676 -36.44555314 196.9781 -36.4877391 167.59281019 C-36.49274171 164.12076198 -36.49791902 160.64871405 -36.50320435 157.17666626 C-36.50425359 156.48546674 -36.50530283 155.79426721 -36.50638387 155.08212225 C-36.52377196 143.9017433 -36.55530079 132.72144693 -36.59208897 121.54111691 C-36.62954293 110.06240329 -36.65142377 98.58374767 -36.65983176 87.10497415 C-36.66504328 80.66029984 -36.67727944 74.21581259 -36.70639801 67.77119827 C-36.73359629 61.7022811 -36.74191371 55.63362764 -36.73590851 49.5646553 C-36.73700676 47.34028693 -36.74493406 45.11590951 -36.76029968 42.89159393 C-36.78029626 39.84694387 -36.77538137 36.8032804 -36.76449585 33.75860596 C-36.77614722 32.88503437 -36.78779858 32.01146278 -36.79980302 31.11141932 C-36.71903464 22.71371769 -34.06975593 14.52644632 -28.21010482 8.33634031 C-19.61294428 1.25069134 -10.8144803 -0.12449633 0 0 Z " fill="#28BCF9" transform="translate(74.28347778320313,89.25155639648438)"/>
<path d="M0 0 C9.92589588 7.00130156 17.38174552 17.83408579 24.84765625 27.26953125 C31.30354448 35.40898786 37.97901173 43.37766331 44.58520508 51.39526367 C50.0081924 57.97795745 55.40950796 64.57808876 60.8046875 71.18359375 C65.44063373 76.85541075 70.09167208 82.51452583 74.75 88.16796875 C85.68673605 101.44101739 85.68673605 101.44101739 88.50202942 104.98342896 C90.679114 107.6785723 90.679114 107.6785723 93.09184265 109.93283081 C99.9328279 116.94274405 100.8906018 122.52546929 100.87226868 131.88064575 C100.83956666 133.56238831 100.80528254 135.24410075 100.76953125 136.92578125 C100.76288132 138.68210921 100.75966287 140.43845315 100.75968933 142.1947937 C100.75044316 145.85841035 100.71146613 149.52002202 100.64868164 153.18310547 C100.56931215 157.85806006 100.54702384 162.53104378 100.54483509 167.20660591 C100.53984268 170.82720804 100.51350674 174.44739595 100.47995567 178.06783676 C100.4648101 179.79083828 100.45407838 181.5138849 100.44800758 183.23694229 C100.38769461 194.01299733 100.24540823 203.91189291 92.125 211.98046875 C91.53460938 212.59535156 90.94421875 213.21023438 90.3359375 213.84375 C82.00345006 219.72180383 73.66431727 220.24782563 63.7204895 220.18936157 C62.3179709 220.19541232 60.91545889 220.20319514 59.51295841 220.21254671 C55.68206896 220.23302553 51.85155555 220.22876426 48.02063584 220.22018552 C43.88008019 220.21523616 39.73961335 220.23329768 35.59909058 220.2482605 C27.4963706 220.27371731 19.3937833 220.27734658 11.29103006 220.27265997 C4.70287422 220.26908926 -1.88524144 220.27260225 -8.47339249 220.28110886 C-9.88159736 220.28289442 -9.88159736 220.28289442 -11.31825081 220.28471606 C-13.2256267 220.28713964 -15.13300259 220.28956791 -17.04037847 220.29200082 C-34.91475981 220.31373744 -52.78906563 220.30943357 -70.66345121 220.29723112 C-87.00218278 220.28689333 -103.34067586 220.30940459 -119.67936026 220.34742756 C-136.47174163 220.38620564 -153.26401023 220.40269269 -170.05643666 220.39518106 C-179.47779702 220.39136027 -188.8989544 220.39630032 -198.32027817 220.42461014 C-206.3405747 220.44846698 -214.36054329 220.45121523 -222.38084446 220.4270298 C-226.4696018 220.4152725 -230.55775974 220.41299522 -234.64647675 220.43703461 C-238.39604512 220.45882307 -242.14451626 220.45246599 -245.89403404 220.42451124 C-247.87897376 220.41675448 -249.86396287 220.4382557 -251.84878623 220.46110499 C-261.27902742 220.34803525 -269.61332969 218.22115452 -276.52037704 211.43847048 C-285.55547457 200.93688983 -285.02369342 188.06528082 -285.19042969 174.93286133 C-285.22993149 172.7264267 -285.29799678 170.52030662 -285.39550781 168.31567383 C-285.91427491 156.52430945 -286.16222123 146.9457785 -278.140625 137.66015625 C-276.41197921 135.79384476 -274.64916405 133.98917049 -272.82348633 132.21786499 C-270.78037098 130.20538052 -269.00937696 128.02312096 -267.234375 125.7734375 C-266.15679925 124.46699469 -265.07869542 123.16098722 -264 121.85546875 C-260.17479492 117.21981649 -256.35728944 112.5785925 -252.5625 107.91796875 C-248.78162886 103.28746365 -244.93055101 98.71934519 -241.05395508 94.16894531 C-239.05673198 91.82135159 -237.10287123 89.47294425 -235.24609375 87.01171875 C-228.90774625 79.56943206 -219.11406056 75.36818182 -209.53125 74.390625 C-198.98050693 74.02016352 -189.60196101 77.21706108 -181.25 83.66796875 C-175.1434334 89.58664099 -169.73629131 96.11635795 -164.50390625 102.8125 C-162.66188952 105.14614684 -160.79346149 107.44857012 -158.90234375 109.7421875 C-158.31114746 110.46116211 -157.71995117 111.18013672 -157.11083984 111.92089844 C-155.92806488 113.35769865 -154.74227231 114.792021 -153.55322266 116.22363281 C-153.01101074 116.88459961 -152.46879883 117.54556641 -151.91015625 118.2265625 C-151.42168213 118.81751709 -150.93320801 119.40847168 -150.42993164 120.01733398 C-149.25 121.66796875 -149.25 121.66796875 -148.25 124.66796875 C-144.67597906 121.17721353 -141.33964144 117.55686263 -138.125 113.73046875 C-137.65054443 113.16835693 -137.17608887 112.60624512 -136.68725586 112.02709961 C-132.83113319 107.42811841 -129.131925 102.7171028 -125.45117188 97.97753906 C-121.6397169 93.09833607 -117.6468884 88.39554614 -113.59667969 83.71386719 C-109.04343184 78.44871088 -104.63367983 73.07504442 -100.25 67.66796875 C-94.32196464 60.40387997 -88.36609871 53.16301754 -82.40356445 45.92724609 C-79.17885454 42.01304943 -75.95883634 38.09520128 -72.75 34.16796875 C-68.87957804 29.43503703 -65.00526462 24.70533356 -61.125 19.98046875 C-60.55072266 19.27921875 -59.97644531 18.57796875 -59.38476562 17.85546875 C-43.85713399 -1.03381509 -24.27701967 -14.37233283 0 0 Z " fill="#A4E69F" transform="translate(322.25,198.33203125)"/>
<path d="M0 0 C0.33 0 0.66 0 1 0 C3.07911186 10.99175943 5.15750054 21.98365538 7.2350769 32.97570515 C8.20082609 38.0851834 9.16678345 43.19462207 10.13330078 48.30395508 C11.25621738 54.24026804 12.37840515 60.17671842 13.5 66.11328125 C13.68669754 67.10134766 13.87339508 68.08941406 14.06575012 69.10742188 C16.65736168 82.82812061 19.22245762 96.55354206 21.76802063 110.28285408 C24.42272709 124.60010591 27.11120616 138.90732055 29.96466064 153.18655396 C31.72181653 162.01089826 33.43523228 170.84397658 35.15661621 179.675354 C35.75954335 182.76828187 36.36369849 185.86096765 36.96838379 188.95355225 C38.98439288 199.269304 40.98567454 209.58773928 42.96308517 219.91096497 C43.87789699 224.68508976 44.79828988 229.4579681 45.7331543 234.22821045 C46.62322941 238.77126614 47.49678566 243.31721898 48.35900497 247.86564064 C48.6806165 249.54746636 49.00779672 251.22823943 49.34128189 252.90775108 C51.04907488 261.52785032 52.28593279 269.93061492 52.36865234 278.73413086 C52.37985926 279.46410813 52.39106617 280.19408541 52.40261269 280.9461832 C52.30030726 290.15418535 47.83510488 297.19985854 42 304 C30.98611199 314.17587479 13.88476365 314.36649839 0 316 C0 211.72 0 107.44 0 0 Z " fill="#63D0B4" transform="translate(460,101)"/>
<path d="M0 0 C8.11388037 6.2223009 12.75723061 14.21904669 15.546875 23.953125 C16.76995932 36.49685019 14.69024886 47.63835382 7.23046875 57.92578125 C0.59437665 65.91680631 -8.07586534 71.35538207 -18.453125 72.953125 C-29.15212216 73.91288798 -39.55550161 72.21184558 -48.328125 65.703125 C-56.17471924 58.9363373 -62.52506803 51.4119246 -64.453125 40.953125 C-65.18245849 27.33422468 -64.34032184 16.90168479 -55.453125 5.953125 C-40.13097799 -10.62346679 -18.46354029 -12.41334065 0 0 Z " fill="#FDC83C" transform="translate(162.453125,126.046875)"/>
<path d="M0 0 C73.92 0 147.84 0 224 0 C220.40052878 1.79973561 217.89143356 2.55817101 214.00439453 3.30249023 C212.76853607 3.54201416 211.53267761 3.78153809 210.2593689 4.02832031 C208.88387694 4.28855336 207.50835709 4.54863905 206.1328125 4.80859375 C204.66825682 5.08979108 203.20379194 5.37146167 201.7394104 5.65356445 C197.71545711 6.42688501 193.69001941 7.19220076 189.66416931 7.95557785 C187.1248332 8.43753166 184.58585731 8.9213383 182.04699707 9.40579224 C171.82344734 11.35644793 161.5978274 13.29598437 151.37080383 15.2283411 C144.88841967 16.45327423 138.40662862 17.68129346 131.92521858 18.91137028 C119.15754498 21.33439727 106.38763605 23.745286 93.61566162 26.14553833 C89.04451776 27.00484544 84.47414271 27.8680839 79.90435791 28.73458862 C74.47144433 29.76436944 69.03690213 30.78508795 63.60102463 31.79910278 C61.59083124 32.17557827 59.58121029 32.55512542 57.57222366 32.93798828 C54.80324191 33.46511372 52.03235926 33.98083493 49.26074219 34.49389648 C48.06757228 34.72509264 48.06757228 34.72509264 46.85029793 34.96095943 C35.46287633 37.03350746 25.24175085 36.50948881 15.25 30.25 C7.91365979 24.97094038 3.30490064 18.82954245 1 10 C0.67 6.7 0.34 3.4 0 0 Z " fill="#8EDFA7" transform="translate(59,450)"/>
<path d="M0 0 C14.99327698 0.53946034 26.46460435 1.81748061 37.25 13.25 C45.08046021 22.95806374 45.50651882 34.46354649 44.23596191 46.36724854 C44.1014563 47.52819031 43.96695068 48.68913208 43.82836914 49.88525391 C43.6237632 51.76012985 43.6237632 51.76012985 43.4150238 53.67288208 C43.04228495 57.06979893 42.66044951 60.46545131 42.27438664 63.86086321 C41.8718541 67.42076962 41.48118985 70.98197845 41.08921814 74.5430603 C40.34667889 81.27270435 39.59360742 88.00112532 38.83666271 94.72916257 C37.97478037 102.39460161 37.12477265 110.06134298 36.2757169 117.72821164 C34.53027216 133.48695131 32.77006214 149.24400524 31 165 C28.58429566 162.58429566 28.46532238 161.31966378 27.80859375 158 C27.59122559 156.91340088 27.37385742 155.82680176 27.14990234 154.70727539 C26.91480957 153.48387451 26.6797168 152.26047363 26.4375 151 C26.17678453 149.66980334 25.91587236 148.33964523 25.65478516 147.00952148 C23.06002141 133.68200215 20.69504631 120.31122658 18.3210144 106.94299316 C15.90911052 93.36275811 13.40719506 79.80349828 10.7890625 66.26171875 C10.51345016 64.83298162 10.23788655 63.40423509 9.96237183 61.97547913 C8.74764495 55.68111771 7.52858786 49.38772094 6.29094505 43.09782124 C5.90276331 41.11854045 5.51831198 39.13857539 5.13534546 37.15827942 C4.66784415 34.74243202 4.19428509 32.32774437 3.71304321 29.91459656 C2.38447696 22.99889573 1.60917563 16.21103002 1.23181152 9.17767334 C1.00487432 6.06681713 0.56119363 3.06648622 0 0 Z " fill="#F2623F" transform="translate(458,81)"/>
<path d="M0 0 C9.85633913 8.02128175 12.39904952 18.62977552 14.28515625 30.78125 C14.54425781 32.3590625 14.54425781 32.3590625 14.80859375 33.96875 C15.2276718 36.5297825 15.63631598 39.09200201 16.03515625 41.65625 C15.28621094 40.90472656 14.53726563 40.15320313 13.765625 39.37890625 C10.59002787 36.20150913 10.59002787 36.20150913 7.34765625 33.09375 C6.76628906 32.53558594 6.18492187 31.97742188 5.5859375 31.40234375 C-3.98888971 24.84805928 -13.92608216 25.07489394 -25.08251953 25.11035156 C-26.90664039 25.10160598 -28.7307536 25.09111677 -30.55485535 25.07902527 C-35.48185355 25.05126537 -40.40860019 25.04775837 -45.33566523 25.04874516 C-50.49400565 25.04560743 -55.65223421 25.01997135 -60.81051636 24.99676514 C-70.56728087 24.95626737 -80.32397865 24.93587905 -90.08081424 24.92279124 C-101.19334911 24.90690011 -112.30577076 24.86847556 -123.41823983 24.82819796 C-146.26706976 24.74588418 -169.11589648 24.69173884 -191.96484375 24.65625 C-191.96484375 24.32625 -191.96484375 23.99625 -191.96484375 23.65625 C-170.62631577 19.60325898 -149.2858301 15.5607264 -127.94297981 11.53055573 C-118.03265782 9.65893843 -108.12299933 7.78393423 -98.21484375 5.90087891 C-89.57656859 4.25917467 -80.93710443 2.62390373 -72.2961663 0.99627161 C-67.72303129 0.13463224 -63.15054601 -0.73016566 -58.57947159 -1.60267639 C-54.27183295 -2.42479803 -49.96264836 -3.23826969 -45.65215874 -4.04530525 C-44.07544908 -4.34204993 -42.49931548 -4.64187567 -40.92384148 -4.94511223 C-25.83910845 -7.84508286 -13.07350666 -9.40739104 0 0 Z " fill="#9BE6AA" transform="translate(439.96484375,33.34375)"/>
<path d="M0 0 C-0.393489 4.41904466 -0.81910709 8.83445823 -1.25 13.25 C-1.35957031 14.48492187 -1.46914063 15.71984375 -1.58203125 16.9921875 C-2.93874297 30.55930468 -5.65912681 40.70003978 -16 50 C-29.21533829 60.36258076 -45.74319875 57.15655428 -61.36865234 55.34765625 C-62.95682967 55.16965335 -64.54508395 54.9923359 -66.13340759 54.81564331 C-70.39977307 54.33910319 -74.66501226 53.85311086 -78.93009901 53.36527634 C-83.40439938 52.85518799 -87.87969576 52.3539906 -92.35488892 51.85180664 C-100.80892416 50.901791 -109.2620478 49.94390506 -117.71486437 48.98311329 C-127.34671854 47.8886998 -136.97956842 46.80317805 -146.61250758 45.71836281 C-166.40945365 43.48872638 -186.20513747 41.24805417 -206 39 C-196.07569331 33.33004148 -182.830786 33.56464951 -171.77807617 33.63110352 C-170.32412433 33.62862705 -168.87017429 33.62478015 -167.41622925 33.61968994 C-164.31926133 33.61143897 -161.22247786 33.61208396 -158.12550926 33.61987495 C-153.21935601 33.63158752 -148.31343366 33.61919066 -143.40730286 33.60325623 C-131.23256767 33.56729001 -119.05784025 33.5608328 -106.88305664 33.56335449 C-97.3942025 33.56506917 -87.9055407 33.55787331 -78.41674024 33.52337593 C-73.54797105 33.50666689 -68.67967349 33.50830068 -63.81090677 33.52419865 C-60.77734811 33.53002332 -57.74401009 33.51920766 -54.71049118 33.50395203 C-53.31336761 33.50024845 -51.91620597 33.50326774 -50.51911736 33.51382256 C-38.87497014 33.59588022 -29.39044373 31.57350522 -20.48046875 23.6484375 C-14.59459585 17.59865422 -11.8357058 9.1126353 -10 1 C-6.61376074 -0.04191977 -3.52573365 -0.03863818 0 0 Z " fill="#FE6558" transform="translate(470,416)"/>
<path d="M0 0 C1.49638166 0.16652229 2.99283908 0.33236493 4.48936462 0.49758911 C8.50833459 0.94322967 12.52618735 1.39827485 16.54388952 1.85518527 C20.76888812 2.33402472 24.99486355 2.80408718 29.22073364 3.27516174 C37.21191088 4.16731379 45.20217655 5.0673738 53.19214451 5.97028452 C62.26380941 6.99500007 71.33652621 8.01024926 80.40931296 9.02497566 C93.79497636 10.52242293 107.18027068 12.02318158 120.56450081 13.53339005 C122.00598563 13.69599857 123.44748794 13.85845209 124.88900948 14.02073479 C131.76195547 14.79468665 138.6325257 15.57450926 145.49267578 16.45532227 C145.49267578 16.78532227 145.49267578 17.11532227 145.49267578 17.45532227 C79.82267578 17.45532227 14.15267578 17.45532227 -53.50732422 17.45532227 C-50.05721876 8.83005863 -44.08497336 4.25533261 -35.80419922 0.36547852 C-24.76050705 -4.01067842 -11.47271544 -1.32138334 0 0 Z " fill="#FEAA39" transform="translate(102.50732421875,40.544677734375)"/>
<path d="M0 0 C73.92 0 147.84 0 224 0 C220.52631049 1.73684475 218.08503793 2.5372539 214.3515625 3.2890625 C213.26359375 3.50820313 212.175625 3.72734375 211.0546875 3.953125 C209.92289063 4.17484375 208.79109375 4.3965625 207.625 4.625 C206.5009375 4.85445313 205.376875 5.08390625 204.21875 5.3203125 C202.58292969 5.64515625 202.58292969 5.64515625 200.9140625 5.9765625 C199.4283374 6.27167725 199.4283374 6.27167725 197.91259766 6.57275391 C194.90024656 7.01463273 192.04011186 7.07392884 189 7 C189 6.67 189 6.34 189 6 C175.19993038 4.93406359 161.52215011 4.69784073 147.68920898 5.2265625 C120.00286695 6.26232754 92.30878018 6.15303935 64.60715485 6.12856853 C59.05640841 6.12418885 53.50568436 6.12735865 47.95493931 6.1321975 C41.8968304 6.13726495 35.83873737 6.1367545 29.7806263 6.13381577 C27.22202614 6.13314851 24.66342516 6.1339679 22.10482597 6.13629532 C18.56912845 6.13881505 15.0334954 6.13499535 11.49780273 6.12939453 C9.91421211 6.13243088 9.91421211 6.13243088 8.29862976 6.13552856 C7.3451062 6.13270874 6.39158264 6.12988892 5.40916443 6.12698364 C4.57669913 6.12660662 3.74423384 6.12622959 2.88654232 6.12584114 C1 6 1 6 0 5 C0 3.35 0 1.7 0 0 Z " fill="#56BB92" transform="translate(59,450)"/>
<path d="M0 0 C10.37456166 0.10980785 20.7490841 0.22279214 31.12357235 0.33933926 C35.9460556 0.39342576 40.76854448 0.44659962 45.59106445 0.49731445 C65.84910355 0.71098114 86.0993852 0.99422366 106.3515625 1.53515625 C123.38732259 1.98888938 140.39539004 2.09449714 157.4375 2 C172.99488844 1.91652375 188.47789311 1.84246294 204 3 C200.64417969 4.79102769 198.06272266 5.35266267 194.25 5.625 C193.26515625 5.69976562 192.2803125 5.77453125 191.265625 5.8515625 C190.51796875 5.90054687 189.7703125 5.94953125 189 6 C189 5.67 189 5.34 189 5 C175.2008957 3.93413815 161.52333062 3.69482433 147.69140625 4.22875977 C119.98527122 5.27299173 92.27196372 5.11835282 64.55061305 5.07202673 C57.60202496 5.06062536 50.65343561 5.05529506 43.70484042 5.05032361 C29.46988359 5.04001068 15.23494248 5.02254764 1 5 C0.67 3.35 0.34 1.7 0 0 Z " fill="#6AC793" transform="translate(59,451)"/>
<path d="M0 0 C5.61 0 11.22 0 17 0 C13.2311658 1.8844171 11.31987525 2.33429462 7.25 2.625 C6.26515625 2.69976562 5.2803125 2.77453125 4.265625 2.8515625 C3.51796875 2.90054687 2.7703125 2.94953125 2 3 C1.34 2.01 0.68 1.02 0 0 Z " fill="#6ACCA2" transform="translate(246,454)"/>
</svg>
